# xmcd
#
# Track frame offsets: 
#        150
#        12648
#        27771
#        39594
#        57342
#        70440
#        84363
#        94386
#        105684
#        118407
#        135405
#        154503
#        170301
#
# Disc length: 2472 seconds
#
# Revision: 0
# Processed by: cddbd v1.5.2PL0 Copyright (c) Steve Scherf et al.
# Submitted via: ExactAudioCopyFreeDBPlugin 1.0
#
DISCID=ab09a60d
DTITLE=Various Artist - Ladies and Gentlemen CD2
DYEAR=2011
DGENRE=
TTITLE0=Dinah Washington - Mad About The Boy
TTITLE1=Nina Simone - Love Me Or Leave Me
TTITLE2=The Platters - The Great Pretender
TTITLE3=Ella Fitzgerald - My Funny Valentine
TTITLE4=Anita O'Day - My Heart Belongs To Daddy
TTITLE5=Etta James - At Last
TTITLE6=Shirley Horn - Come Dance With Me
TTITLE7=Astrud Gilberto - The Shadow Of Your Smile
TTITLE8=Sarah Vaughan - Fever
TTITLE9=Billie Holiday - Lady Sings The Blues
TTITLE10=Stan Getz, Astrud Gilberto - Corcovado
TTITLE11=Melody Gardot - Baby I'm A Fool
TTITLE12=Anita O'Day - Tenderly
EXTD=
EXTT0=
EXTT1=
EXTT2=
EXTT3=
EXTT4=
EXTT5=
EXTT6=
EXTT7=
EXTT8=
EXTT9=
EXTT10=
EXTT11=
EXTT12=
PLAYORDER=
